<?xml version="1.0" standalone="no"?><!DOCTYPE svg PUBLIC "-//W3C//DTD SVG 1.1//EN" "http://www.w3.org/Graphics/SVG/1.1/DTD/svg11.dtd"><svg t="1546279124019" class="icon" style="" viewBox="0 0 1024 1024" version="1.1" xmlns="http://www.w3.org/2000/svg" p-id="1449" xmlns:xlink="http://www.w3.org/1999/xlink" width="200" height="200"><defs><style type="text/css"></style></defs><path d="M960.951361 114.220198C960.951361 72.172603 927.254127 38.065815 885.684346 38.065815L133.082458 38.065815C91.535429 38.065815 57.838196 72.172603 57.838196 114.220198L57.838196 875.695767C57.838196 917.743362 91.535429 951.85015 133.082458 951.85015L546.027153 951.85015C546.277436 964.70561 547.164804 977.4018 548.666504 989.915965L133.082458 989.915965C70.739162 989.915965 20.204688 938.789912 20.204688 875.695767L20.204688 114.220198C20.204688 51.126053 70.739162 0 133.082458 0L885.684346 0C948.050394 0 998.584868 51.126053 998.584868 114.220198L998.584868 577.653861C986.252727 574.855238 973.715809 572.670948 960.951361 571.146495L960.951361 114.220198ZM680.975358 275.175114 265.277547 275.175114C250.101278 275.175114 237.769137 262.865726 237.769137 247.666704L237.769137 247.211643C237.769137 232.012621 250.101278 219.703233 265.277547 219.703233L680.975358 219.703233C696.174381 219.703233 708.483768 232.012621 708.483768 247.211643L708.483768 247.666704C708.483768 262.865726 696.174381 275.175114 680.975358 275.175114ZM681.111876 513.353805 265.163782 513.353805C250.033019 513.353805 237.769137 501.112676 237.769137 485.981913 237.769137 470.873903 250.033019 458.610021 265.163782 458.610021L681.111876 458.610021C696.219887 458.610021 708.483768 470.873903 708.483768 485.981913 708.483768 501.112676 696.219887 513.353805 681.111876 513.353805ZM596.243084 785.662038 750.235574 785.662038 750.235574 611.510366C750.235574 596.311343 762.408444 584.001955 777.425442 584.001955 792.419687 584.001955 804.592556 596.311343 804.592556 611.510366L804.592556 785.662038 976.719209 785.662038C991.736207 785.662038 1003.886324 797.971425 1003.886324 813.147695 1003.886324 828.346717 991.713454 840.656105 976.719209 840.656105L804.592556 840.656105 804.592556 996.468837C804.592556 1011.667859 792.419687 1023.977247 777.425442 1023.977247 762.408444 1023.977247 750.235574 1011.667859 750.235574 996.468837L750.235574 840.656105 596.243084 840.656105C581.226086 840.656105 569.053216 828.346717 569.053216 813.147695 569.053216 797.971425 581.226086 785.662038 596.243084 785.662038Z" p-id="1450"></path></svg>