<?xml version="1.0" standalone="no"?><!DOCTYPE svg PUBLIC "-//W3C//DTD SVG 1.1//EN" "http://www.w3.org/Graphics/SVG/1.1/DTD/svg11.dtd"><svg t="1546278809158" class="icon" style="" viewBox="0 0 1117 1024" version="1.1" xmlns="http://www.w3.org/2000/svg" p-id="1248" xmlns:xlink="http://www.w3.org/1999/xlink" width="218.1640625" height="200"><defs><style type="text/css"></style></defs><path d="M968.517818 266.24a34.909091 34.909091 0 0 1 49.477818 0.069818l82.129455 82.129455c13.661091 13.661091 13.591273 35.933091 0.046545 49.454545l-41.122909 41.122909-131.653818-131.653818 41.122909-41.122909z m-74.030545 74.053818l131.653818 131.630546-304.314182 304.314181c-4.608 4.631273-13.358545 8.378182-20.037818 8.378182h-108.288A11.543273 11.543273 0 0 1 581.818182 772.887273V664.669091c0-6.469818 3.723636-15.429818 8.378182-20.061091l304.290909-304.290909z m-32.814546 65.745455L729.832727 537.832727a23.365818 23.365818 0 0 0 0.069818 32.837818 23.156364 23.156364 0 0 0 32.814546 0.069819l131.816727-131.793455a23.365818 23.365818 0 0 0-0.069818-32.837818 23.156364 23.156364 0 0 0-32.814545-0.069818z m-181.108363 181.085091l98.722909 98.746181-49.361455 49.361455H697.018182l-16.453818-49.361455-49.384728-16.453818V636.509091l49.384728-49.384727zM977.454545 192.837818l-93.090909 13.288727v-43.054545A69.911273 69.911273 0 0 0 814.498909 93.090909H162.955636A69.911273 69.911273 0 0 0 93.090909 163.072v697.856A69.911273 69.911273 0 0 0 162.955636 930.909091h651.543273A69.911273 69.911273 0 0 0 884.363636 860.928v-166.074182l93.090909-13.288727v202.728727A139.729455 139.729455 0 0 1 837.934545 1024H139.52A139.589818 139.589818 0 0 1 0 884.293818V139.706182A139.729455 139.729455 0 0 1 139.52 0h698.414545A139.589818 139.589818 0 0 1 977.454545 139.706182v53.131636zM139.636364 279.272727a46.545455 46.545455 0 0 1 46.359272-46.545454h605.463273c25.6 0 46.359273 20.666182 46.359273 46.545454a46.545455 46.545455 0 0 1-46.359273 46.545455H185.995636A46.312727 46.312727 0 0 1 139.636364 279.272727z m0 232.727273c0-25.716364 20.992-46.545455 46.429091-46.545455h395.86909c25.646545 0 46.429091 20.666182 46.429091 46.545455 0 25.716364-20.992 46.545455-46.429091 46.545455H186.065455A46.359273 46.359273 0 0 1 139.636364 512z m0 232.727273c0-25.716364 20.875636-46.545455 46.685091-46.545455h232.448c25.786182 0 46.685091 20.666182 46.68509 46.545455 0 25.716364-20.875636 46.545455-46.68509 46.545454H186.321455A46.498909 46.498909 0 0 1 139.636364 744.727273z" p-id="1249"></path></svg>