<?xml version="1.0" standalone="no"?><!DOCTYPE svg PUBLIC "-//W3C//DTD SVG 1.1//EN" "http://www.w3.org/Graphics/SVG/1.1/DTD/svg11.dtd"><svg t="1546278706439" class="icon" style="" viewBox="0 0 1024 1024" version="1.1" xmlns="http://www.w3.org/2000/svg" p-id="562" xmlns:xlink="http://www.w3.org/1999/xlink" width="200" height="200"><defs><style type="text/css"></style></defs><path d="M512 64.2c-168.44 0-305 136.55-305 305s305 462.89 305 462.89S817 537.65 817 369.2s-136.55-305-305-305zM287 366c0-124.26 100.74-225 225-225s225 100.7 225 225-225 343.09-225 343.09S287 490.23 287 366z" fill="#1defea" p-id="563"></path><path d="M512 227a142 142 0 1 0 142 142 142 142 0 0 0-142-142z m0 204a62 62 0 1 1 62-62 62 62 0 0 1-62 62zM726 667.24c-18.72 23.13-37.38 45-54.87 64.69C758.05 746 816 771.27 816 800.09c0 44.18-136.1 80-304 80s-304-35.82-304-80c0-29 58.79-54.46 146.75-68.48-17.53-19.8-36.25-41.68-55-64.87C196.21 695.4 128 744.42 128 800.09c0 88.36 171.92 160 384 160s384-71.64 384-160c0-55.34-67.46-104.09-170-132.85z" fill="#1defea" p-id="564"></path></svg>